<?xml version="1.0" standalone="no"?>
<!DOCTYPE svg PUBLIC "-//W3C//DTD SVG 20010904//EN"
 "http://www.w3.org/TR/2001/REC-SVG-20010904/DTD/svg10.dtd">
<svg version="1.0" xmlns="http://www.w3.org/2000/svg"
 width="512.000000pt" height="512.000000pt" viewBox="0 0 512.000000 512.000000"
 preserveAspectRatio="xMidYMid meet">

<g transform="translate(0.000000,512.000000) scale(0.100000,-0.100000)"
fill="#000000" stroke="none">
<path d="M3610 4987 c-173 -73 -979 -414 -1790 -757 -1288 -545 -1486 -632
-1562 -683 -114 -77 -174 -157 -204 -272 -18 -67 -20 -2843 -3 -2927 26 -119
117 -241 219 -293 115 -58 -23 -55 2287 -55 1534 0 2137 3 2175 11 167 36 303
174 338 343 7 35 9 511 8 1481 l-3 1430 -22 55 c-51 124 -140 213 -262 262
l-56 23 -1807 5 -1807 5 1439 609 c791 335 1453 617 1470 627 65 40 87 120 52
188 -23 47 -61 72 -113 77 -39 4 -82 -11 -359 -129z m1106 -1693 c15 -11 37
-33 48 -48 21 -27 21 -29 21 -1441 0 -1412 0 -1414 -21 -1441 -11 -15 -33 -37
-48 -48 l-27 -21 -2129 0 -2129 0 -27 21 c-15 11 -37 33 -48 48 -21 27 -21 32
-24 1404 -2 757 0 1396 3 1420 8 52 53 108 99 121 18 6 887 9 2143 8 l2112 -2
27 -21z"/>
<path d="M2878 2870 c-45 -24 -82 -72 -97 -125 -15 -54 -15 -596 0 -650 15
-52 82 -119 134 -134 54 -15 1384 -15 1438 0 44 12 101 59 125 103 15 27 17
72 20 331 2 201 0 314 -8 345 -15 60 -53 108 -104 131 -39 18 -79 19 -756 18
-690 0 -716 -1 -752 -19z m1422 -445 l0 -275 -665 0 -665 0 0 275 0 275 665 0
665 0 0 -275z"/>
<path d="M1415 2833 c-74 -10 -197 -48 -271 -83 -285 -133 -483 -384 -550
-695 -16 -72 -21 -271 -9 -341 76 -446 440 -787 878 -823 343 -28 666 114 867
381 125 166 189 344 197 553 12 273 -80 514 -271 713 -190 198 -439 304 -706
300 -58 0 -118 -3 -135 -5z m273 -299 c44 -9 117 -35 171 -61 78 -37 109 -59
177 -127 68 -68 90 -99 127 -177 73 -150 92 -281 63 -432 -47 -244 -227 -447
-466 -527 -90 -30 -250 -37 -350 -16 -143 30 -297 124 -385 234 -176 220 -204
516 -72 765 39 74 143 186 220 239 150 102 335 139 515 102z"/>
<path d="M2957 1666 c-68 -25 -97 -66 -97 -138 0 -58 30 -104 83 -128 60 -28
186 -27 242 0 48 23 85 80 85 130 0 43 -35 103 -73 125 -42 25 -186 31 -240
11z"/>
<path d="M3586 1670 c-57 -18 -106 -85 -106 -146 0 -45 40 -102 87 -125 38
-18 58 -21 137 -17 76 3 98 8 124 27 88 62 82 199 -10 247 -38 20 -185 29
-232 14z"/>
<path d="M4205 1666 c-133 -50 -128 -240 8 -277 64 -17 201 -7 234 17 49 37
68 72 68 124 0 52 -19 87 -68 124 -36 26 -182 34 -242 12z"/>
<path d="M2935 1221 c-58 -35 -70 -58 -70 -126 0 -54 4 -67 25 -90 43 -46 71
-55 178 -55 86 0 103 3 133 23 94 63 88 199 -12 249 -50 26 -212 25 -254 -1z"/>
<path d="M3561 1222 c-54 -27 -76 -65 -76 -127 0 -62 22 -100 76 -128 28 -15
54 -17 142 -15 l108 3 40 42 c35 38 39 47 39 97 0 44 -5 60 -26 86 -42 50 -73
60 -176 60 -69 0 -102 -5 -127 -18z"/>
<path d="M4179 1219 c-47 -28 -72 -72 -71 -125 0 -55 25 -97 72 -123 31 -17
55 -21 129 -21 107 0 148 14 182 61 51 71 21 182 -57 215 -21 9 -69 14 -126
14 -76 0 -100 -4 -129 -21z"/>
</g>
</svg>
